<svg width="15" height="23" viewBox="0 0 15 23" fill="none" xmlns="http://www.w3.org/2000/svg">
<path fill-rule="evenodd" clip-rule="evenodd" d="M8.29467 0.226324C8.1889 0.259919 7.83663 0.825521 7.7146 1.15761C7.6401 1.36026 7.61967 1.55712 7.63628 1.91163C7.65844 2.38517 7.6629 2.39794 7.97843 2.88325C8.24244 3.28941 8.30313 3.4285 8.32677 3.68204C8.36048 4.04301 8.24351 4.45623 7.98206 4.89985C7.72395 5.33785 7.76016 5.51888 8.10588 5.51888C8.29408 5.51888 8.39562 5.43506 8.60186 5.10938C8.88225 4.66671 9.01267 4.18747 8.9857 3.69943C8.96265 3.28196 8.94806 3.24248 8.63664 2.75401L8.31164 2.24419V1.77301C8.31164 1.3155 8.31897 1.28977 8.56476 0.885031C8.70394 0.655803 8.81787 0.44905 8.81787 0.425633C8.81787 0.402215 8.76427 0.340632 8.69876 0.288803C8.58286 0.197111 8.45083 0.176709 8.29467 0.226324ZM3.76766 2.20885C3.34047 2.68955 3.12136 3.41337 3.2257 3.99933C3.26763 4.23459 3.36334 4.44002 3.59346 4.78855L3.90452 5.25973L3.90249 5.70735C3.90065 6.1194 3.8823 6.18866 3.67213 6.57903C3.54653 6.81226 3.43111 7.05798 3.41569 7.12508C3.37948 7.28236 3.54045 7.41349 3.74628 7.39436C3.94752 7.3757 4.11118 7.17922 4.35738 6.66073C4.53587 6.28492 4.55308 6.20176 4.55624 5.70273L4.55963 5.15626L4.23309 4.64258C3.93781 4.17805 3.90446 4.09441 3.88463 3.76864C3.85961 3.35749 3.96407 3.01089 4.2335 2.61152C4.3977 2.36806 4.40616 2.27218 4.27507 2.13818C4.16954 2.03028 3.89201 2.06896 3.76766 2.20885ZM12.5353 2.27373C12.45 2.38065 12.3102 2.6086 12.2247 2.78025C12.0883 3.05415 12.0689 3.16205 12.0665 3.66234L12.0637 4.23242L12.3912 4.74605L12.7188 5.25973L12.718 5.70735C12.7173 6.11982 12.6994 6.18828 12.49 6.57903C12.1915 7.13582 12.1755 7.19887 12.3038 7.31101C12.4359 7.42654 12.6403 7.43002 12.7673 7.31897C12.9092 7.19491 13.2017 6.66375 13.3097 6.33392C13.429 5.9697 13.4302 5.41805 13.3122 5.10391C13.2619 4.96991 13.1078 4.69573 12.9698 4.49459C12.7223 4.13413 12.7188 4.12217 12.7188 3.65773C12.7188 3.19819 12.7252 3.17585 12.9805 2.75283C13.2342 2.3323 13.2392 2.31548 13.1429 2.19919C12.9805 2.00314 12.7263 2.03433 12.5353 2.27373Z" fill="#1B1B1B"/>
<path fill-rule="evenodd" clip-rule="evenodd" d="M1.80636 17.9524L6.75223 21.9621C7.1286 22.2463 7.58731 22.4 8.05889 22.4C8.53047 22.4 8.98918 22.2463 9.36555 21.9621L14.3114 17.9524C14.4831 17.8124 14.6203 17.6347 14.7123 17.4331C14.8043 17.2316 14.8486 17.0115 14.8419 16.7901V10.6194C14.8583 10.398 14.8301 10.1756 14.7591 9.96521C14.6881 9.75485 14.5757 9.56085 14.4284 9.39468C14.4925 9.64998 14.4801 9.9185 14.3927 10.1668C14.3053 10.4151 14.1468 10.6322 13.9369 10.7911L8.98331 14.8008C8.6175 15.1054 8.15656 15.2721 7.68055 15.2721C7.20455 15.2721 6.74356 15.1054 6.37775 14.8008L1.43193 10.7911C1.17963 10.5958 1.00088 10.3208 0.924844 10.011L0.800049 10.7911L1.25247 16.8446C1.25634 17.0595 1.30644 17.2711 1.39931 17.4649C1.49219 17.6588 1.62568 17.8303 1.79075 17.968L1.80636 17.9524Z" fill="#1B1B1B"/>
<path fill-rule="evenodd" clip-rule="evenodd" d="M9.04586 11.9535L9.27988 11.7663L11.0585 10.3231C11.1359 10.2666 11.1988 10.1926 11.2422 10.1072C11.2856 10.0218 11.3082 9.92738 11.3082 9.83159C11.3082 9.7358 11.2856 9.64136 11.2422 9.55596C11.1988 9.47056 11.1359 9.3966 11.0585 9.34012L8.42955 7.22606C8.25452 7.09319 8.04084 7.02127 7.82109 7.02127C7.60135 7.02127 7.38762 7.09319 7.21259 7.22606L6.4871 7.81113C5.75381 8.41181 6.25309 9.17632 6.74455 9.89401C6.94109 10.1912 7.16013 10.4729 7.39981 10.7365C7.68845 11.0486 8.6324 12.2967 9.04586 11.9691V11.9535Z" fill="#E07153"/>
<path fill-rule="evenodd" clip-rule="evenodd" d="M4.41206 10.4713L7.041 12.601C7.17891 12.7041 7.34077 12.7703 7.51137 12.7935C7.68197 12.8167 7.85569 12.7961 8.01612 12.7336C8.5856 12.5152 7.9381 12.1407 7.65726 11.8833C7.37642 11.6259 7.06438 11.3372 6.87716 11.1032C6.62425 10.8269 6.39217 10.5323 6.18286 10.2217C5.53537 9.28555 5.80843 8.38063 5.08293 8.97351L4.44324 9.48838C4.36581 9.54569 4.3029 9.62035 4.25955 9.70638C4.21619 9.79241 4.1936 9.88741 4.1936 9.98375C4.1936 10.0801 4.21619 10.1751 4.25955 10.2611C4.3029 10.3471 4.36581 10.4218 4.44324 10.4791L4.41206 10.4713Z" fill="#E07153"/>
</svg>
