<svg width="134" height="128" viewBox="0 0 134 128" fill="none" xmlns="http://www.w3.org/2000/svg">
  <path fill-rule="evenodd" clip-rule="evenodd"
        d="M25.9368 8.74044C32.5832 4.4001 40.5618 1.39838 47.5931 0.592521C49.4991 0.374046 51.1177 0.168073 51.1903 0.135209C51.778 -0.132794 50.1003 2.07463 49.0976 2.88882C48.3426 3.50166 48.1665 3.79975 48.6646 3.62109C50.8608 2.83328 58.9267 1.47568 63.0724 1.19611C74.4661 0.42774 88.0015 3.7044 98.0043 9.65229C115.726 20.1896 126.836 37.4917 129.007 57.9339C129.291 60.607 129.59 62.876 129.671 62.976C129.753 63.0755 130.151 62.8811 130.557 62.5436C131.841 61.4763 133.075 58.506 133.09 56.4481C133.102 54.7674 133.183 54.5985 133.616 55.3469C134.591 57.0281 133.152 70.9207 131.144 79.226C130.165 83.2738 127.266 91.0838 126.587 91.5046C126.376 91.6346 126.407 91.0602 126.655 90.228C127.288 88.1034 127.96 81.9916 127.649 81.1798C127.504 80.8034 126.717 82.3911 125.871 84.7661C123.92 90.2381 121.155 95.6523 118.011 100.156C115.232 104.136 114.863 105.61 116.645 105.61C117.266 105.61 117.901 105.401 118.059 105.147C118.548 104.352 119.676 104.64 119.676 105.56C119.676 106.452 109.83 118.107 109.075 118.107C108.241 118.107 107.2 117.532 107.2 117.072C107.2 116.812 107.928 115.792 108.817 114.806C110.108 113.374 110.434 112.632 110.434 111.126V109.239L107.778 111.626C104.503 114.567 98.7912 118.402 94.4931 120.545C77.0264 129.25 55.9283 129.27 38.6548 120.597C25.6106 114.048 15.2871 103.43 9.38138 90.4909C8.41473 88.3732 7.49244 86.6384 7.33164 86.6361C7.17038 86.6338 6.91347 87.1003 6.76006 87.6734C6.14921 89.9572 6.51701 91.5694 8.31723 94.5007C10.7232 98.4185 10.8244 100.151 8.49282 97.5094C5.89877 94.5706 1.84088 84.9998 0.750856 79.2496C0.468994 77.7614 0.587281 77.8531 2.49332 80.5965C4.47051 83.4423 5.80312 84.6763 6.32988 84.1486C6.46896 84.0088 6.14598 82.1671 5.61136 80.0559C5.07675 77.9447 4.43124 74.7593 4.1771 72.9772C3.47614 68.0648 3.60366 58.6453 4.43677 53.7338C8.01319 32.6551 21.9353 14.8253 41.4989 6.26918C45.4075 4.55933 45.2647 4.32327 40.9929 5.4323C36.295 6.65151 32.7824 8.69925 23.3853 15.6969C19.095 18.8917 16.7999 20.3155 13.7244 21.6893L12.4315 22.2669L13.4633 20.7756C15.233 18.2173 23.2092 10.522 25.9368 8.74044ZM113.724 17.5683C113.303 17.709 91.0275 3.90622 91.0275 3.50398C91.0275 3.16701 91.6111 3.29615 95.6242 4.52183C103.676 6.9806 109.792 10.7984 112.683 15.1702C113.501 16.4074 113.97 17.4864 113.724 17.5683ZM122.327 28.4444C122.146 28.9878 118.752 24.285 118.752 23.4912C118.752 22.8066 121.077 25.1622 121.827 26.6059C122.2 27.3233 122.424 28.1505 122.327 28.4444ZM9.70344 31.8854C10.8956 29.3442 13.5446 26.1763 15.4511 25.0117C17.139 23.9809 17.2532 23.9592 16.7731 24.7623C16.1049 25.8792 9.02188 34.2622 8.87264 34.1127C8.7927 34.0322 9.16605 33.0301 9.70344 31.8854ZM0.00738983 63.4333C-0.00416189 55.7705 1.51049 48.4974 3.82176 45.1175C4.37671 44.3056 4.8702 43.6807 4.91826 43.7289C4.96585 43.777 4.41645 46.1076 3.69701 48.9079C1.96795 55.6358 1.21385 62.4992 1.49664 68.9262C1.62371 71.8089 1.62601 74.0659 1.50125 73.9409C0.80168 73.2401 0.0133967 67.6963 0.00738983 63.4333ZM37.3795 123.662C34.9435 123.662 27.0088 118.818 25.8172 116.603C25.1864 115.431 25.5057 115.565 28.7416 117.828C30.3422 118.948 33.2731 120.718 35.2549 121.763C38.4663 123.455 38.6973 123.662 37.3795 123.662ZM19.6696 54.3059C19.524 54.3053 19.3786 54.2929 19.2349 54.2688C18.8408 54.2011 18.4691 54.0381 18.1521 53.794C17.835 53.5499 17.5821 53.232 17.4153 52.868C17.3513 52.7329 17.2906 52.5945 17.2333 52.4595C16.0715 49.6337 15.8575 46.5063 16.6234 43.5481L16.8526 42.6772L17.1053 43.5379C17.2131 43.9405 17.354 44.3334 17.5265 44.7126C17.9489 45.6048 18.5703 46.3878 19.3428 47.0012C20.0852 47.6168 20.9649 48.044 21.9071 48.2468C21.7522 48.1186 21.6175 48.014 21.4827 47.9094L21.4826 47.9093L21.4825 47.9093C20.8871 47.482 20.3412 46.9895 19.855 46.4409C19.2687 45.7977 18.7866 45.0664 18.4262 44.2738C18.0573 43.4778 17.7694 42.6466 17.5669 41.7928C17.5333 41.6477 17.5063 41.5059 17.4794 41.3642L17.4793 41.3641L17.422 41.0771L17.449 41.0096C18.4548 38.6423 19.8808 36.4773 21.6578 34.6197L22.1935 34.0492L22.0722 34.8256C21.9099 35.9095 21.951 37.0143 22.1935 38.083C22.4292 39.1419 22.8538 40.1493 23.4471 41.0569C23.6411 41.3822 23.8669 41.6875 24.121 41.9683C24.2289 42.0966 24.3367 42.2248 24.4378 42.3565C24.7983 42.7379 25.2061 43.0991 25.5902 43.4333C25.4285 43.1599 25.2701 42.927 25.1117 42.6974L25.0884 42.6636C24.9425 42.4523 24.8393 42.3027 24.7208 42.1134L24.1311 41.1278L23.9559 40.7632C23.8784 40.5978 23.7942 40.4257 23.7099 40.2738L23.6223 40.0982L23.3426 39.3759C23.2373 39.141 23.1539 38.8969 23.0933 38.6467C23.0697 38.5522 23.0427 38.4645 23.0124 38.3733C22.9617 38.2221 22.9212 38.0676 22.8911 37.9109C22.6608 36.9271 22.5678 35.916 22.6148 34.9066C22.6322 34.4724 22.6749 34.0396 22.7428 33.6104V33.526L22.8068 33.4686C24.8853 31.549 27.233 29.9444 29.7754 28.7057L30.3819 28.4053L30.1022 29.023C29.9565 29.3416 29.8326 29.6698 29.7316 30.0053C29.4432 30.984 29.3179 32.0036 29.3609 33.0231L29.3811 33.2897C29.4028 33.7005 29.4557 34.109 29.5395 34.5117C29.6268 35.0096 29.7507 35.5004 29.9102 35.9801C30.0183 36.3182 30.1466 36.6496 30.2943 36.9725L30.4763 37.3978C30.6818 37.8029 30.9244 38.2316 31.2041 38.6873C31.1367 38.4172 31.0607 38.1472 30.9847 37.8772L30.9847 37.8771L30.9278 37.6746L30.8031 37.2493C30.756 37.0333 30.7054 36.8376 30.6549 36.6418L30.6549 36.6418L30.6549 36.6417C30.5841 36.3682 30.5167 36.0948 30.4662 35.8214C30.2766 34.8825 30.1639 33.9297 30.1292 32.9724C30.102 32.0285 30.1697 31.0842 30.3314 30.1539C30.4502 29.5181 30.6192 28.8928 30.8368 28.2838L30.8705 28.1859L30.9649 28.1454C31.595 27.8652 32.1207 27.6424 32.6261 27.45C34.7821 26.6177 37.0114 25.9904 39.2847 25.5766L39.8238 25.4821L39.4869 26.0053C39.3992 26.1403 39.315 26.2753 39.2375 26.4171C38.7345 27.3443 38.3743 28.3424 38.1693 29.3775C38.0644 29.8895 37.9968 30.4084 37.9671 30.9302C37.9352 31.3504 37.9352 31.7725 37.9671 32.1927V32.5134C37.9964 32.9269 38.0504 33.3384 38.1289 33.7454L38.1794 34.0526C38.3037 34.5505 38.4533 35.0417 38.6276 35.5244C38.6613 35.1193 38.6579 34.7345 38.6545 34.3632V33.9919L38.6815 33.0906C38.6772 32.889 38.684 32.6873 38.7017 32.4864C38.745 31.503 38.8497 30.5233 39.0151 29.553C39.198 28.5797 39.4687 27.625 39.8238 26.7007C39.9755 26.3159 40.1608 25.9175 40.3596 25.5158L40.4169 25.3977H40.5416C42.9621 25.0341 45.4183 24.9729 47.8538 25.2154L48.3121 25.2661L48.0088 25.6036C47.3821 26.3288 46.8954 27.1644 46.5733 28.0678L46.3206 28.8509C46.2667 29.0973 46.2128 29.364 46.1622 29.6306C46.1047 29.8895 46.0675 30.1525 46.051 30.4171L45.987 31.234C45.987 31.7572 46.0039 32.2838 46.0308 32.8239L46.1016 33.31C46.1521 33.6712 46.2027 34.029 46.2667 34.3868C46.2835 34.078 46.2887 33.7879 46.2938 33.499V33.4988L46.297 33.3235V32.8138L46.4419 31.126C46.5585 30.1517 46.7845 29.1937 47.1159 28.2703C47.4607 27.3131 47.9655 26.4217 48.6086 25.634L48.7131 25.5158L48.8647 25.3471L48.9962 25.3673C51.5047 25.7219 53.9174 26.5745 56.0928 27.8754L56.4297 28.0745L56.1163 28.2838C55.4579 28.7293 54.8868 29.2923 54.4315 29.9446C53.9741 30.5828 53.6476 31.3056 53.4711 32.0712C53.3915 32.3784 53.3418 32.6927 53.3229 33.0096L53.2993 33.2391C53.2924 33.6211 53.3082 34.0033 53.3464 34.3834V34.3227C53.4523 33.5967 53.6226 32.8816 53.8553 32.1859C54.0875 31.4924 54.4189 30.8364 54.8392 30.2382C55.2563 29.6321 55.7552 29.0868 56.3219 28.618L56.5443 28.4391L56.7397 28.2872L56.8846 28.3918C58.82 29.7336 60.3384 31.595 61.2652 33.7623C61.7105 34.8119 62.0076 35.9184 62.1481 37.0501C62.1904 37.3933 62.1578 37.7416 62.0525 38.0709C61.9472 38.4002 61.7717 38.7026 61.5382 38.9573C61.2947 39.2255 60.9959 39.4375 60.6625 39.5785C60.3291 39.7196 59.9691 39.7863 59.6074 39.7742C59.3528 39.7658 59.0995 39.759 58.8475 39.7536L58.8526 39.7741C58.8947 40.032 58.8785 40.296 58.805 40.5467C58.7315 40.7973 58.6026 41.0282 58.428 41.2223C58.6613 41.3364 58.8667 41.5004 59.0298 41.7028C59.1928 41.9052 59.3095 42.141 59.3715 42.3936C59.4458 42.804 59.3589 43.2273 59.1289 43.575C59.4743 43.814 59.7155 44.1763 59.8028 44.5877C59.8771 44.994 59.7926 45.4133 59.5669 45.759C59.7397 45.8761 59.8874 46.0265 60.0015 46.2015C60.1156 46.3764 60.1937 46.5723 60.2314 46.7778C60.269 46.9834 60.2654 47.1943 60.2207 47.3984C60.1761 47.6025 60.0913 47.7957 59.9713 47.9666C60.3249 48.202 60.5746 48.5646 60.6688 48.9793C60.7438 49.4204 60.6407 49.8733 60.3824 50.2384C60.5703 50.3542 60.7329 50.5069 60.8603 50.6873C60.9877 50.8677 61.0773 51.0721 61.1238 51.2882L61.1339 51.2814C61.1531 51.3838 61.1621 51.4878 61.1608 51.592C61.1608 52.3683 60.5341 53.1616 59.5231 53.6173C59.5446 53.9031 59.4995 54.1901 59.3913 54.4554C59.2831 54.7208 59.1148 54.9573 58.8997 55.1464C58.5684 55.4643 58.1779 55.7137 57.7506 55.8803C61.662 57.7831 64.9058 60.8291 67.0538 64.6167C68.7381 67.5868 69.6865 70.9032 69.8383 74.2891L90.002 69.9914C90.0471 69.8964 90.1006 69.8182 90.1639 69.7626C90.1639 69.7626 87.1042 66.3465 88.0241 64.7465C88.7594 63.4652 89.8746 60.9375 90.605 59.2821L90.6053 59.2814C90.9157 58.5778 91.1566 58.0319 91.2691 57.8064C91.4342 57.506 94.3019 55.5515 95.3128 54.8764C95.5387 54.7308 95.7836 54.6172 96.0406 54.5389L100.202 53.1515C100.202 53.1515 100.148 52.6971 100.221 52.3076H94.9522L103.316 45.867L111.09 52.3076H105.98C105.594 53.9206 104.591 55.5575 103.862 55.7777C103.638 55.8565 103.395 55.8607 103.169 55.7895C102.943 55.7183 102.746 55.5755 102.608 55.3827L102.217 55.987L102.922 56.922C103.039 57.0775 103.094 57.2713 103.077 57.4655L102.325 65.0947C102.509 65.2123 102.721 65.3495 102.947 65.4962L102.949 65.4974L102.951 65.499L102.953 65.5002C103.381 65.7781 103.861 66.0897 104.307 66.3668C104.514 66.496 104.689 66.6593 104.825 66.8321L110.318 65.6613C110.439 65.6455 110.562 65.6761 110.661 65.747C110.761 65.8178 110.83 65.9237 110.855 66.0434C110.881 66.1632 110.86 66.288 110.797 66.393C110.734 66.498 110.634 66.5754 110.517 66.6098L105.158 67.752C105.145 67.8145 105.12 67.867 105.082 67.906C104.96 68.0294 104.842 68.0489 104.722 68.069C104.591 68.0907 104.457 68.113 104.31 68.2672C104.075 68.5137 104.068 68.5138 103.766 68.5183C103.704 68.5192 103.629 68.5203 103.538 68.5237C103.268 68.534 103.2 68.5855 103.131 68.638C103.063 68.6894 102.995 68.7416 102.733 68.7567C102.508 68.7696 102.318 68.5941 102.174 68.3881L100.989 68.6405L100.569 69.7556L111.005 67.555C111.127 67.5392 111.249 67.5698 111.349 67.6407C111.448 67.7115 111.518 67.8174 111.543 67.9371C111.568 68.0569 111.547 68.1817 111.484 68.2867C111.422 68.3917 111.322 68.4691 111.204 68.5035L100.492 70.7623L100.745 81.9179C100.709 82.7451 100.486 83.5533 100.091 84.2808C98.706 86.8496 95.4071 93.0673 95.6059 93.7019C95.8586 94.502 98.3354 95.4268 99.6832 95.3425C101.031 95.2581 101.493 96.2674 101.031 96.453C99.6293 96.9575 98.1319 97.1387 96.6505 96.983C95.8038 96.8766 95.0166 96.949 94.3601 97.0094C93.4543 97.0927 92.7973 97.1532 92.5765 96.6893C92.3204 96.1512 92.4973 95.5963 92.7338 94.8541C92.849 94.4928 92.9782 94.0872 93.0786 93.6176C93.5908 91.2074 95.4374 84.8918 95.4374 84.8918C95.4374 84.8918 88.634 89.5028 86.6594 90.134C85.0259 90.6561 85.3063 92.0699 85.5702 93.4007C85.6253 93.6787 85.6797 93.9531 85.7158 94.215C85.7734 94.6327 85.8456 94.9674 85.9023 95.2303C86.0514 95.9214 86.0936 96.1172 85.4833 96.0243C84.7703 95.8681 84.1381 95.458 83.7043 94.87C83.2704 94.2821 83.0644 93.5563 83.1245 92.8277C83.1667 91.7735 82.9768 91.2165 82.8082 90.722C82.6399 90.2285 82.4928 89.7974 82.6191 88.9964C82.8278 87.6722 83.7215 87.8446 84.2408 87.9447L84.2409 87.9448C84.3504 87.9659 84.4432 87.9838 84.5095 87.9838C84.5638 87.9838 84.6266 87.9932 84.6983 88.0039C85.1293 88.0686 85.8836 88.1817 87.0738 86.593C88.4621 84.7399 92.2834 81.8436 92.2834 81.8436C92.0745 79.366 91.6465 75.5449 91.6465 75.5449C90.989 74.4434 90.4215 73.4899 90.1022 72.9531L69.7685 77.2406C69.3714 81.54 67.6933 85.6218 64.9507 88.9553C62.181 92.3216 58.4563 94.7661 54.2693 95.9654C50.0824 97.1647 45.6306 97.0622 41.5031 95.6716C37.3756 94.2809 33.7669 91.6675 31.1545 88.1773C28.5421 84.6871 27.0492 80.4846 26.8734 76.1259C26.6977 71.7703 27.8453 67.4639 30.1646 63.7757L30.1461 63.7777C29.9975 63.7976 29.8478 63.8077 29.6979 63.8081C28.6432 63.8081 27.7637 63.3558 27.5042 62.5828C27.408 62.2876 27.401 61.9705 27.484 61.6714C27.1678 61.5612 26.8916 61.3591 26.6905 61.091C26.4895 60.8228 26.3727 60.5008 26.3551 60.1659C26.0569 60.1054 25.7787 59.9708 25.5461 59.7744C25.3135 59.5779 25.134 59.326 25.0241 59.0418C24.9008 58.6468 24.9322 58.2196 25.1117 57.8469C24.7433 57.662 24.4607 57.3414 24.3232 56.9523C24.1947 56.5523 24.2262 56.1179 24.4108 55.7405C24.0391 55.5555 23.753 55.2338 23.6122 54.8426C23.5401 54.5914 23.5244 54.3273 23.5664 54.0693C23.6083 53.8114 23.7068 53.5659 23.8548 53.3506C23.6062 53.2723 23.3787 53.1383 23.1895 52.9587C23.0003 52.7792 22.8545 52.5588 22.763 52.3143L22.7576 52.2956C22.2714 52.7404 21.8241 53.1705 21.4151 53.5802C21.1873 53.8118 20.9155 53.9954 20.6157 54.1201C20.3159 54.2447 19.9942 54.3079 19.6696 54.3059ZM58.36 39.7449C40.497 39.4935 29.1504 46.5998 23.1869 51.9082C23.1904 51.9946 23.2018 52.0809 23.2213 52.1658C23.3117 52.382 23.4552 52.5718 23.6384 52.7175C23.8216 52.8633 24.0386 52.9603 24.2693 52.9996L24.4007 53.0333L24.4816 53.2831L24.4041 53.4046C24.2413 53.5748 24.1249 53.7839 24.0659 54.0121C24.0069 54.2402 24.0073 54.4797 24.0671 54.7076C24.1339 54.8753 24.2363 55.0265 24.3672 55.1507C24.4981 55.2748 24.6544 55.369 24.8253 55.4266L25.0848 55.5346L24.9399 55.7776C24.8446 55.9261 24.7811 56.0928 24.7533 56.267C24.7254 56.4413 24.7339 56.6195 24.7781 56.7903C24.8674 57.0744 25.063 57.3127 25.324 57.4553L25.3297 57.4584C25.5038 57.1023 26.4693 55.4634 29.2834 55.8081L29.2227 56.2874C26.4966 55.96 25.7553 57.6882 25.7486 57.7085L25.7356 57.7031L25.725 57.7186L25.634 57.8772C25.534 58.0274 25.4675 58.1974 25.439 58.3757C25.4105 58.5539 25.4207 58.7362 25.4689 58.9102C25.5723 59.1383 25.7333 59.3355 25.936 59.4823C26.1387 59.6291 26.376 59.7204 26.6247 59.7473L26.8235 59.7912V59.987C26.8043 60.2573 26.8752 60.5263 27.0253 60.7518C27.1754 60.9773 27.396 61.1464 27.6525 61.2325L27.6527 61.2326C27.9667 60.6225 29.1577 58.9 32.2265 59.4332C32.6299 58.8309 33.7523 57.5772 35.9975 57.6264C39.0322 55.4901 42.568 54.1784 46.2598 53.8194C49.9522 53.4603 53.6745 54.0664 57.0633 55.5785L57.0831 55.5874C57.6365 55.4584 58.1466 55.1866 58.5628 54.7987C58.7352 54.6515 58.8686 54.4638 58.9509 54.2523C59.0332 54.0408 59.062 53.8122 59.0345 53.5869L59.0191 53.525L59.0144 53.5261C58.9114 53.1617 58.6693 52.8524 58.3404 52.6654C57.8754 52.4257 57.252 52.4629 56.4804 52.7734C56.4804 52.7734 55.21 53.3709 54.7248 54.1844L54.3103 53.938C54.8697 52.9962 56.2175 52.3413 56.2748 52.3143C57.1981 51.9396 57.9597 51.9126 58.5527 52.2232C58.7805 52.3485 58.9805 52.5187 59.141 52.7235C59.2405 52.8506 59.3235 52.9894 59.3883 53.1365C60.2691 52.7379 60.79 52.0232 60.6587 51.3894C60.6116 51.1969 60.5208 51.0179 60.3934 50.8663C60.266 50.7147 60.1054 50.5945 59.9241 50.5152L59.6478 50.3768L59.8635 50.1573C59.9973 50.0144 60.0971 49.843 60.1555 49.6559C60.2139 49.4689 60.2292 49.271 60.2005 49.0772C60.1555 48.8974 60.0719 48.7297 59.9555 48.5857C59.8391 48.4417 59.6927 48.3249 59.5265 48.2434L59.2738 48.105L59.4524 47.8822C59.5781 47.7434 59.6719 47.5787 59.7272 47.3996C59.7825 47.2206 59.798 47.0316 59.7725 46.8459C59.7287 46.672 59.6484 46.5094 59.5368 46.3691C59.4252 46.2288 59.285 46.114 59.1255 46.0324L58.8863 45.8974L59.0581 45.6746C59.1749 45.5358 59.261 45.3738 59.311 45.1993C59.3609 45.0248 59.3735 44.8417 59.3479 44.6619C59.3019 44.4921 59.2221 44.3334 59.1132 44.1953C59.0044 44.0572 58.8687 43.9427 58.7144 43.8586L58.6571 43.8349L58.6196 43.8125C58.1111 43.6263 55.6147 42.8019 54.0802 44.8829L54.0474 44.9928C50.5869 43.9475 49.5045 46.193 49.4688 46.2671L49.468 46.2687L49.0265 46.073C49.0265 46.0468 50.1979 43.5188 53.8183 44.4286C55.4836 42.371 58.0503 43.0954 58.73 43.3373C58.8976 43.0871 58.9643 42.7824 58.9166 42.4847C58.8522 42.2554 58.73 42.0465 58.5619 41.878C58.3937 41.7096 58.1852 41.5872 57.9562 41.5227L57.5923 41.3843L57.872 41.121C58.0603 40.9748 58.2079 40.7824 58.3006 40.5625C58.3933 40.3426 58.4278 40.1025 58.401 39.8653C58.3891 39.8245 58.3754 39.7843 58.36 39.7449ZM35.6454 61.7861L35.2511 61.3613L35.2444 61.3676C34.9546 61.6377 34.675 61.9246 34.3986 62.2149C34.183 62.4512 33.9639 62.6942 33.7584 62.9406C30.8967 66.3279 29.309 70.6002 29.2509 75.0183H47.8929L36.0027 62.171L36.0026 62.1709L35.6455 61.7862L35.6454 61.7861ZM36.1441 61.6174L35.6051 61.034C39.0361 57.9399 43.4734 56.2012 48.0898 56.1423V57.5869L48.0897 57.5869V58.0967L48.0898 58.0966L48.0898 74.5221L36.5014 62.0022L36.5013 62.0022L36.1442 61.6174L36.1441 61.6174ZM48.5725 57.4257V56.1423H48.575C49.5758 56.1543 50.5741 56.2457 51.5605 56.4157C51.5861 56.4106 51.6125 56.4106 51.638 56.4157C52.6838 56.5953 53.712 56.8652 54.7112 57.2224L54.7577 57.2388C54.7423 57.2435 54.7268 57.2482 54.7112 57.2528C54.9437 57.3338 55.1729 57.4215 55.402 57.5161L55.4389 57.5005C57.6292 58.3832 59.6369 59.6658 61.3596 61.2832L61.3671 61.2903L48.5725 74.3739V57.9321L48.575 57.9312V57.4249L48.5725 57.4257ZM65.9548 67.9096C66.8917 70.1647 67.3875 72.578 67.4165 75.0183H48.6169L61.7144 61.625C63.5332 63.4146 64.9751 65.5516 65.9548 67.9096ZM65.8633 82.7977C66.8551 80.491 67.3826 78.0114 67.4161 75.501H48.9941L61.5382 89.0538V89.037C63.3825 87.2684 64.8533 85.1467 65.8633 82.7977ZM48.575 75.7576L61.1844 89.3881C57.7349 92.5457 53.2474 94.3237 48.575 94.3839H48.5725V75.7548L48.575 75.7576ZM48.0898 75.5573L48.0897 94.3839C43.1903 94.3242 38.5024 92.375 35.001 88.9416L48.0898 75.5573ZM47.4703 75.501L34.6636 88.5969L34.6615 88.5948C31.3535 85.1968 29.4281 80.6859 29.2611 75.9425C29.2559 75.7952 29.2525 75.648 29.2507 75.501H47.4703ZM89.7901 71.0275L69.86 75.2754C69.8597 75.5951 69.8523 75.9153 69.8378 76.2355L89.7788 72.0308C89.7687 71.7588 89.7647 71.3914 89.7901 71.0275ZM30.4999 63.2275L30.5245 63.2211L30.5268 63.2174C31.84 61.2744 33.4591 59.5578 35.3212 58.1344C33.2256 58.3672 32.5011 59.9141 32.4881 59.9462L32.488 59.9465L32.4813 59.9768C28.9618 59.2049 28.0679 61.47 28.0177 61.5973L28.0164 61.6005L28.0116 61.5988L28.0063 61.614C27.8919 61.8701 27.8739 62.1591 27.9557 62.4275C28.2118 63.1836 29.3137 63.5178 30.4999 63.2275ZM41.1583 59.9228L41.165 59.9271V59.9228C41.3216 60.0257 41.4604 60.1534 41.5761 60.3009L41.5752 60.3012C41.8266 60.6072 41.9639 60.9913 41.9636 61.3878C41.9636 61.8515 41.7797 62.2963 41.4524 62.6242C41.125 62.9521 40.6811 63.1363 40.2181 63.1363C39.7552 63.1363 39.3112 62.9521 38.9839 62.6242C38.6565 62.2963 38.4726 61.8515 38.4726 61.3878C38.4693 61.3699 38.4693 61.3516 38.4726 61.3338C38.4733 61.1491 38.5075 60.9661 38.5737 60.7937C38.6946 60.4556 38.9168 60.1632 39.21 59.9566C39.5032 59.7499 39.8529 59.6391 40.2114 59.6392C40.5475 59.6415 40.876 59.7399 41.1583 59.9228ZM44.6122 59.2747L44.6169 59.2731L44.6123 59.2815C44.5668 59.3998 44.5556 59.5286 44.5798 59.653C44.604 59.7774 44.6627 59.8925 44.7492 59.9851C44.8356 60.0776 44.9463 60.1439 45.0687 60.1764C45.191 60.2089 45.32 60.2062 45.4409 60.1687C45.5617 60.1311 45.6696 60.0603 45.7522 59.9642C45.8347 59.8681 45.8886 59.7507 45.9076 59.6253C45.9266 59.5 45.91 59.3719 45.8597 59.2555C45.8094 59.1392 45.7275 59.0394 45.6232 58.9676L45.6063 58.9642C45.5972 58.9544 45.5856 58.9474 45.5726 58.944L45.5637 58.9403L45.5726 58.9372C45.4 58.8635 45.2063 58.8566 45.0289 58.9177C44.8515 58.9788 44.7031 59.1036 44.6122 59.268V59.2747ZM29.9539 51.4705L29.499 51.3118C29.499 51.2815 30.5369 48.5 34.5233 49.3776L34.4188 49.8502C30.991 49.0944 30.0585 51.2313 29.9613 51.4541L29.9565 51.4649L29.9539 51.4705ZM36.1778 49.0704L35.7229 48.9118C35.7229 48.8822 36.7117 46.2402 40.451 46.9174C40.9039 46.1771 42.2277 44.7031 45.2794 45.3776L45.1783 45.8502C41.6233 45.0671 40.7472 47.3725 40.7101 47.4704L40.6466 47.4478L40.6461 47.4502C37.0877 46.6637 36.2115 48.9725 36.1778 49.0704ZM39.5375 52.9253L39.0927 52.7633C39.0927 52.7367 40.0981 50.0384 43.931 50.7904C44.3631 50.0627 45.6799 48.5296 48.7806 49.2122L48.6761 49.7017C45.1177 48.9017 44.2449 51.2106 44.2112 51.3085L44.0256 51.2423L44.0124 51.3017C40.4405 50.5186 39.5712 52.8274 39.5375 52.9253ZM36.289 82.9205C36.289 83.8862 35.5076 84.669 34.5435 84.669C33.5795 84.669 32.798 83.8862 32.798 82.9205C32.798 81.9548 33.5795 81.1719 34.5435 81.1719C35.5076 81.1719 36.289 81.9548 36.289 82.9205ZM41.6469 74.0664C42.6109 74.0664 43.3924 73.2836 43.3924 72.3179C43.3924 71.3522 42.6109 70.5693 41.6469 70.5693C40.6829 70.5693 39.9014 71.3522 39.9014 72.3179C39.9014 73.2836 40.6829 74.0664 41.6469 74.0664ZM41.3503 78.3095C41.3503 79.2752 40.5688 80.058 39.6048 80.058C38.6408 80.058 37.8593 79.2752 37.8593 78.3095C37.8593 77.3438 38.6408 76.5609 39.6048 76.5609C40.5688 76.5609 41.3503 77.3438 41.3503 78.3095ZM45.148 92.1729C46.112 92.1729 46.8935 91.39 46.8935 90.4243C46.8935 89.4586 46.112 88.6758 45.148 88.6758C44.1839 88.6758 43.4025 89.4586 43.4025 90.4243C43.4025 91.39 44.1839 92.1729 45.148 92.1729ZM41.9636 88.0885C41.9636 89.0542 41.1821 89.837 40.2181 89.837C39.2541 89.837 38.4726 89.0542 38.4726 88.0885C38.4726 87.1228 39.2541 86.3399 40.2181 86.3399C41.1821 86.3399 41.9636 87.1228 41.9636 88.0885ZM35.4264 68.463C36.3904 68.463 37.1719 67.6802 37.1719 66.7145C37.1719 65.7488 36.3904 64.9659 35.4264 64.9659C34.4624 64.9659 33.6809 65.7488 33.6809 66.7145C33.6809 67.6802 34.4624 68.463 35.4264 68.463ZM46.8935 67.5989C46.8935 68.5646 46.112 69.3474 45.148 69.3474C44.1839 69.3474 43.4025 68.5646 43.4025 67.5989C43.4025 66.6332 44.1839 65.8503 45.148 65.8503C46.112 65.8503 46.8935 66.6332 46.8935 67.5989ZM56.2782 64.5102C56.2782 65.4759 55.4967 66.2588 54.5326 66.2588C53.5686 66.2588 52.7871 65.4759 52.7871 64.5102C52.7871 63.5445 53.5686 62.7617 54.5326 62.7617C55.4967 62.7617 56.2782 63.5445 56.2782 64.5102ZM51.6582 61.2427C52.6222 61.2427 53.4037 60.4598 53.4037 59.4942C53.4037 58.5285 52.6222 57.7456 51.6582 57.7456C50.6942 57.7456 49.9127 58.5285 49.9127 59.4942C49.9127 60.4598 50.6942 61.2427 51.6582 61.2427ZM56.8914 72.2098C56.8914 73.1755 56.1099 73.9584 55.1459 73.9584C54.1819 73.9584 53.4004 73.1755 53.4004 72.2098C53.4004 71.2442 54.1819 70.4613 55.1459 70.4613C56.1099 70.4613 56.8914 71.2442 56.8914 72.2098ZM62.1852 73.2968C63.1492 73.2968 63.9307 72.5139 63.9307 71.5482C63.9307 70.5826 63.1492 69.7997 62.1852 69.7997C61.2212 69.7997 60.4397 70.5826 60.4397 71.5482C60.4397 72.5139 61.2212 73.2968 62.1852 73.2968ZM63.1658 83.8049C63.1658 84.7706 62.3843 85.5534 61.4203 85.5534C60.4562 85.5534 59.6747 84.7706 59.6747 83.8049C59.6747 82.8392 60.4562 82.0563 61.4203 82.0563C62.3843 82.0563 63.1658 82.8392 63.1658 83.8049ZM59.193 80.058C60.157 80.058 60.9385 79.2752 60.9385 78.3095C60.9385 77.3438 60.157 76.5609 59.193 76.5609C58.2289 76.5609 57.4475 77.3438 57.4475 78.3095C57.4475 79.2752 58.2289 80.058 59.193 80.058ZM54.3844 90.1138C54.3844 91.0795 53.6029 91.8623 52.6389 91.8623C51.6748 91.8623 50.8934 91.0795 50.8934 90.1138C50.8934 89.1481 51.6748 88.3653 52.6389 88.3653C53.6029 88.3653 54.3844 89.1481 54.3844 90.1138ZM50.7686 83.5618C51.7326 83.5618 52.5141 82.779 52.5141 81.8133C52.5141 80.8476 51.7326 80.0648 50.7686 80.0648C49.8046 80.0648 49.0231 80.8476 49.0231 81.8133C49.0231 82.779 49.8046 83.5618 50.7686 83.5618ZM50.3381 63.6155C50.4765 63.4762 50.6635 63.3964 50.8596 63.3929C50.986 63.4064 51.1059 63.4554 51.2057 63.5343C51.3054 63.6132 51.3809 63.7187 51.4233 63.8386C51.4658 63.9586 51.4735 64.0882 51.4456 64.2124C51.4177 64.3365 51.3554 64.4503 51.2657 64.5405C51.1761 64.6307 51.0628 64.6937 50.939 64.7222C50.8151 64.7507 50.6858 64.7435 50.5658 64.7016C50.5211 64.6859 50.4785 64.6657 50.4384 64.6413C50.5238 64.6835 50.6198 64.7002 50.7147 64.6891C50.8295 64.6874 50.939 64.641 51.0202 64.5597C51.1013 64.4784 51.1477 64.3686 51.1494 64.2537C51.1613 64.1513 51.1411 64.0478 51.0916 63.9575C51.0421 63.8671 50.9658 63.7945 50.8732 63.7496C50.7806 63.7047 50.6763 63.6898 50.5749 63.707C50.4735 63.7241 50.3799 63.7725 50.3071 63.8454C50.2344 63.9182 50.1861 64.012 50.169 64.1136C50.1518 64.2152 50.1667 64.3196 50.2115 64.4124L50.215 64.4194C50.1626 64.3345 50.1294 64.2388 50.1183 64.1389C50.1209 63.9424 50.1997 63.7547 50.3381 63.6155ZM50.215 64.4194C50.26 64.509 50.3311 64.5829 50.419 64.6312C50.4215 64.6326 50.424 64.6339 50.4265 64.6353C50.4304 64.6373 50.4344 64.6394 50.4384 64.6413C50.3708 64.6003 50.3107 64.5474 50.261 64.4849C50.2443 64.4639 50.229 64.4421 50.215 64.4194ZM58.6369 67.5212C58.4727 67.4636 58.2947 67.4584 58.1275 67.5065C57.9603 67.5547 57.8122 67.6537 57.7036 67.7899C57.595 67.926 57.5314 68.0927 57.5215 68.2667C57.5116 68.4407 57.556 68.6134 57.6484 68.7611C57.7409 68.9087 57.8769 69.0239 58.0376 69.0907C58.1983 69.1575 58.3757 69.1726 58.5454 69.134C58.715 69.0953 58.8685 69.0048 58.9845 68.8749C59.1005 68.745 59.1733 68.5822 59.1929 68.409C59.2336 68.2177 59.1983 68.018 59.0945 67.8523C58.9907 67.6866 58.8266 67.5678 58.6369 67.5212ZM58.492 68.8208C58.3893 68.8336 58.2851 68.8139 58.194 68.7647C58.1029 68.7154 58.0293 68.639 57.9836 68.5459C57.9378 68.4529 57.922 68.3479 57.9385 68.2455C57.955 68.1431 58.0029 68.0484 58.0755 67.9745C58.1482 67.9006 58.242 67.8512 58.3439 67.8331C58.4459 67.815 58.5509 67.8292 58.6445 67.8736C58.738 67.918 58.8155 67.9905 58.8661 68.081C58.9166 68.1715 58.9378 68.2755 58.9267 68.3786C58.9258 68.4956 58.879 68.6076 58.7964 68.6904C58.7139 68.7731 58.6021 68.82 58.4853 68.8208H58.492ZM65.2383 72.3017C65.4065 72.2537 65.5855 72.2594 65.7504 72.3179C65.94 72.3645 66.1041 72.4832 66.2079 72.6489C66.3117 72.8146 66.347 73.0143 66.3064 73.2056C66.2872 73.3798 66.2144 73.5437 66.0981 73.6745C65.9818 73.8054 65.8277 73.8967 65.6572 73.9358C65.4867 73.975 65.3083 73.96 65.1467 73.893C64.9851 73.8259 64.8484 73.7102 64.7554 73.5618C64.6624 73.4134 64.6179 73.2396 64.628 73.0647C64.638 72.8898 64.7022 72.7223 64.8116 72.5856C64.921 72.4489 65.0701 72.3496 65.2383 72.3017ZM65.3079 73.559C65.3986 73.6089 65.5026 73.6294 65.6055 73.6174V73.6208C65.7219 73.6199 65.8334 73.573 65.9154 73.4901C65.9975 73.4073 66.0435 73.2953 66.0435 73.1786C66.0554 73.0756 66.035 72.9714 65.9851 72.8805C65.9353 72.7896 65.8584 72.7166 65.7652 72.6714C65.672 72.6263 65.567 72.6113 65.465 72.6286C65.3629 72.6459 65.2687 72.6946 65.1955 72.7679C65.1223 72.8413 65.0737 72.9356 65.0564 73.0379C65.0391 73.1401 65.0541 73.2452 65.0991 73.3386C65.1442 73.432 65.2171 73.509 65.3079 73.559ZM45.4648 59.8587C45.4102 59.9085 45.3427 59.9419 45.2701 59.9552C45.1974 59.9684 45.1225 59.9609 45.0539 59.9336C44.9852 59.9063 44.9257 59.8602 44.8819 59.8006C44.8381 59.741 44.812 59.6703 44.8064 59.5966C44.8008 59.5228 44.816 59.4489 44.8502 59.3834C44.8845 59.3179 44.9364 59.2633 45.0001 59.2259C45.0638 59.1885 45.1367 59.1697 45.2106 59.1718C45.2844 59.1739 45.3561 59.1967 45.4176 59.2376C45.5042 59.3149 45.5574 59.4228 45.5662 59.5386C45.575 59.6545 45.5387 59.7692 45.4648 59.8587ZM42.857 64.038C43.0273 64.073 43.1826 64.1602 43.3013 64.2875C43.4497 64.4161 43.5414 64.5981 43.5566 64.794C43.5717 64.9899 43.509 65.1839 43.3822 65.3339C43.2845 65.4779 43.1444 65.588 42.9815 65.6489C42.8186 65.7097 42.6408 65.7184 42.4727 65.6736C42.3047 65.6289 42.1546 65.5329 42.0434 65.399C41.9322 65.2651 41.8652 65.0999 41.8518 64.9262C41.8384 64.7525 41.8791 64.579 41.9685 64.4295C42.0578 64.2801 42.1913 64.1621 42.3505 64.092C42.5096 64.0219 42.6866 64.003 42.857 64.038ZM42.9708 65.284C43.0443 65.2692 43.1122 65.2338 43.1666 65.182C43.2398 65.0926 43.2755 64.9781 43.2661 64.8629C43.2566 64.7476 43.2028 64.6405 43.116 64.5643C43.054 64.522 42.9812 64.4981 42.9062 64.4955C42.8312 64.4929 42.757 64.5116 42.6922 64.5494C42.6273 64.5872 42.5745 64.6427 42.5398 64.7094C42.5051 64.776 42.4899 64.8512 42.496 64.9261C42.5022 65.001 42.5293 65.0727 42.5744 65.1328C42.6195 65.1929 42.6806 65.239 42.7508 65.2658C42.8209 65.2925 42.8972 65.2989 42.9708 65.284ZM39.8811 68.0613C39.8323 67.8932 39.7325 67.7444 39.5956 67.6357C39.4586 67.5269 39.2913 67.4635 39.1168 67.4543C38.9423 67.445 38.7692 67.4903 38.6215 67.584C38.4739 67.6777 38.359 67.815 38.2927 67.977C38.2264 68.139 38.2121 68.3176 38.2517 68.4882C38.2913 68.6587 38.3829 68.8126 38.5137 68.9287C38.6445 69.0448 38.8082 69.1172 38.9819 69.136C39.1557 69.1547 39.331 69.1189 39.4835 69.0334C39.6632 68.9553 39.8054 68.8099 39.8796 68.6283C39.9539 68.4467 39.9544 68.2433 39.8811 68.0613ZM38.7557 68.6993C38.6855 68.6229 38.6408 68.5265 38.6278 68.4235C38.6148 68.3205 38.6342 68.216 38.6832 68.1245C38.7322 68.0331 38.8085 67.9592 38.9014 67.9131C38.9942 67.8671 39.0991 67.8512 39.2015 67.8676C39.3038 67.884 39.3985 67.932 39.4723 68.0048C39.5462 68.0776 39.5956 68.1717 39.6137 68.2739C39.6317 68.3761 39.6175 68.4814 39.5731 68.5752C39.5286 68.669 39.4561 68.7466 39.3656 68.7972C39.2713 68.864 39.1547 68.8912 39.0407 68.8729C38.9267 68.8546 38.8243 68.7922 38.7557 68.6993ZM32.221 77.9958C32.1584 78.1584 32.0468 78.2975 31.9017 78.3938C31.7503 78.517 31.557 78.5763 31.3627 78.5593C31.1683 78.5423 30.9883 78.4503 30.8604 78.3027C30.7342 78.1826 30.6484 78.0263 30.6149 77.8552C30.5813 77.6841 30.6017 77.5068 30.6732 77.3479C30.7447 77.1889 30.8638 77.0562 31.0139 76.968C31.1641 76.8799 31.3379 76.8407 31.5112 76.8558C31.6846 76.871 31.849 76.9398 31.9816 77.0527C32.1142 77.1656 32.2085 77.3171 32.2514 77.486C32.2943 77.655 32.2837 77.8331 32.221 77.9958ZM31.2781 77.3961C31.163 77.3854 31.0482 77.42 30.9582 77.4926C30.9072 77.5463 30.8723 77.6133 30.8576 77.686C30.8428 77.7587 30.8488 77.834 30.8748 77.9034C30.9008 77.9728 30.9458 78.0335 31.0046 78.0785C31.0635 78.1235 31.1338 78.151 31.2075 78.1579C31.2812 78.1648 31.3553 78.1507 31.4214 78.1173C31.4875 78.0839 31.5429 78.0326 31.5812 77.9692C31.6195 77.9057 31.6393 77.8328 31.6381 77.7586C31.637 77.6845 31.6151 77.6122 31.5748 77.5499C31.4996 77.462 31.3932 77.4068 31.2781 77.3961ZM43.9686 77.2361C44.0465 77.0792 44.0738 76.9019 44.0466 76.7288C44.0193 76.5557 43.939 76.3954 43.8167 76.2701C43.6945 76.1448 43.5363 76.0608 43.3642 76.0296C43.192 75.9985 43.0145 76.0218 42.8562 76.0963C42.6979 76.1708 42.5666 76.2928 42.4807 76.4454C42.3947 76.598 42.3583 76.7736 42.3765 76.9479C42.3947 77.1221 42.4666 77.2864 42.5822 77.4179C42.6978 77.5494 42.8514 77.6416 43.0217 77.6816C43.2064 77.7452 43.4085 77.7342 43.5853 77.651C43.762 77.5679 43.8995 77.419 43.9686 77.2361ZM42.6982 76.9356C42.7392 76.8277 42.8204 76.7399 42.9248 76.6908C43.0291 76.6416 43.1485 76.635 43.2576 76.6723C43.3728 76.6859 43.478 76.7446 43.55 76.8358C43.622 76.9269 43.655 77.0429 43.6417 77.1584C43.5912 77.2583 43.5085 77.3383 43.4071 77.3856C43.3057 77.4328 43.1914 77.4445 43.0825 77.4188C42.9736 77.3931 42.8766 77.3314 42.8069 77.2438C42.7372 77.1562 42.6989 77.0477 42.6982 76.9356ZM44.8567 85.6166C44.8845 85.7895 44.858 85.9668 44.7807 86.1239C44.7123 86.3075 44.5751 86.4571 44.3982 86.5409C44.2214 86.6247 44.0189 86.6362 43.8338 86.5728C43.6636 86.5331 43.5099 86.4413 43.394 86.3101C43.2782 86.1789 43.206 86.0149 43.1874 85.8407C43.1688 85.6666 43.2047 85.491 43.2902 85.3382C43.3758 85.1854 43.5066 85.0631 43.6646 84.9882C43.8226 84.9133 44 84.8895 44.1722 84.92C44.3443 84.9506 44.5027 85.0341 44.6253 85.1589C44.748 85.2837 44.8288 85.4437 44.8567 85.6166ZM43.6031 85.5336C43.5433 85.6171 43.5109 85.7173 43.5103 85.8201C43.4988 85.9352 43.5325 86.0503 43.6042 86.141C43.6759 86.2317 43.78 86.291 43.8945 86.3062C43.9945 86.3292 44.0992 86.3206 44.1941 86.2815C44.2891 86.2424 44.3695 86.1747 44.4244 86.0878C44.4792 86.0009 44.5058 85.899 44.5003 85.7964C44.4949 85.6937 44.4578 85.5952 44.3941 85.5146C44.3303 85.434 44.2432 85.3752 44.1447 85.3464C44.0462 85.3175 43.9411 85.32 43.8441 85.3536C43.7471 85.3871 43.6628 85.45 43.6031 85.5336ZM57.69 88.5543C57.7673 88.3972 57.7938 88.2199 57.766 88.0469C57.7382 87.8741 57.6573 87.7141 57.5347 87.5893C57.412 87.4645 57.2536 87.381 57.0815 87.3504C56.9093 87.3198 56.732 87.3436 56.5739 87.4186C56.4159 87.4935 56.2851 87.6158 56.1995 87.7686C56.114 87.9213 56.0781 88.097 56.0967 88.2711C56.1153 88.4452 56.1875 88.6093 56.3033 88.7405C56.4192 88.8716 56.5729 88.9635 56.7431 89.0032C56.9283 89.0666 57.1307 89.0551 57.3076 88.9713C57.4844 88.8874 57.6216 88.7378 57.69 88.5543ZM56.4197 88.2572C56.4202 88.1544 56.4526 88.0543 56.5124 87.9707C56.5722 87.8871 56.6564 87.8242 56.7534 87.7907C56.8505 87.7571 56.9555 87.7546 57.054 87.7835C57.1525 87.8123 57.2397 87.8711 57.3034 87.9517C57.3671 88.0324 57.4042 88.1308 57.4097 88.2335C57.4151 88.3362 57.3885 88.438 57.3337 88.5249C57.2788 88.6118 57.1984 88.6795 57.1035 88.7186C57.0085 88.7578 56.9038 88.7664 56.8038 88.7433C56.6893 88.7281 56.5852 88.6689 56.5135 88.5782C56.4418 88.4874 56.4082 88.3723 56.4197 88.2572ZM55.4072 77.4984C55.435 77.6713 55.4085 77.8486 55.3312 78.0057C55.2628 78.1893 55.1256 78.3389 54.9487 78.4227C54.7719 78.5065 54.5695 78.518 54.3843 78.4546C54.2141 78.4149 54.0604 78.323 53.9445 78.1919C53.8287 78.0607 53.7565 77.8967 53.7379 77.7225C53.7193 77.5484 53.7552 77.3728 53.8407 77.22C53.9263 77.0672 54.0571 76.9449 54.2151 76.87C54.3731 76.7951 54.5505 76.7713 54.7227 76.8018C54.8948 76.8324 55.0532 76.9159 55.1758 77.0407C55.2985 77.1655 55.3793 77.3255 55.4072 77.4984ZM54.1536 77.4221C54.0938 77.5057 54.0614 77.6058 54.0608 77.7086V77.7188C54.0521 77.8322 54.087 77.9448 54.1584 78.0333C54.2299 78.1218 54.3324 78.1795 54.445 78.1947C54.545 78.2178 54.6497 78.2092 54.7446 78.17C54.8396 78.1309 54.92 78.0632 54.9749 77.9763C55.0297 77.8894 55.0563 77.7876 55.0508 77.6849C55.0454 77.5822 55.0083 77.4838 54.9446 77.4032C54.8808 77.3226 54.7937 77.2638 54.6952 77.2349C54.5967 77.2061 54.4916 77.2086 54.3946 77.2421C54.2976 77.2756 54.2134 77.3385 54.1536 77.4221ZM37.2325 73.2022C37.1052 73.0596 36.9332 72.9647 36.7447 72.9332C36.5563 72.9018 36.3628 72.9357 36.1962 73.0294C36.0297 73.1231 35.9 73.2709 35.8286 73.4484C35.7573 73.6259 35.7485 73.8225 35.8038 74.0056C35.931 74.1475 36.1027 74.2418 36.2905 74.273C36.4783 74.3042 36.6711 74.2706 36.8373 74.1775C37.0035 74.0845 37.1331 73.9376 37.2049 73.761C37.2768 73.5843 37.2865 73.3885 37.2325 73.2056V73.2022ZM36.097 73.8402C36.0268 73.7638 35.9821 73.6675 35.9691 73.5645C35.9561 73.4615 35.9755 73.357 36.0245 73.2655C36.0735 73.174 36.1498 73.1002 36.2427 73.0541C36.3355 73.0081 36.4404 72.9921 36.5428 73.0086C36.6451 73.025 36.7398 73.0729 36.8136 73.1458C36.8875 73.2186 36.9369 73.3126 36.955 73.4149C36.973 73.5171 36.9588 73.6224 36.9144 73.7162C36.8699 73.81 36.7974 73.8875 36.7069 73.9381C36.6126 74.0049 36.496 74.0321 36.382 74.0138C36.268 73.9955 36.1656 73.9332 36.097 73.8402ZM44.5566 81.919C44.6461 81.8745 44.749 81.8657 44.8447 81.8943C44.9636 81.9699 44.8161 82.2245 44.6385 82.5311C44.499 82.772 44.3409 83.0449 44.2786 83.2884C44.1371 83.842 45.276 83.9736 45.5321 83.6259C45.6693 83.4398 45.6963 83.0465 45.7186 82.7202C45.7381 82.4372 45.754 82.2046 45.8354 82.2015C46.0106 82.1947 46.1252 82.2285 46.0376 82.62C45.95 83.0116 46.3308 82.9238 46.3308 82.9238C47.0249 82.9542 47.1125 82.0631 46.9373 81.5736C46.7621 81.0842 45.7747 80.6656 44.9155 80.6656C44.7582 80.6572 44.601 80.684 44.4554 80.7442C44.3098 80.8044 44.1794 80.8964 44.0738 81.0135C43.9682 81.1306 43.8901 81.2698 43.8451 81.4211C43.8 81.5723 43.7893 81.7316 43.8136 81.8875C43.8742 82.4108 44.2651 82.3669 44.3628 82.134C44.3979 82.0403 44.4672 81.9635 44.5566 81.919ZM53.2825 86.215C53.2368 86.3038 53.2266 86.4067 53.2542 86.5027C53.2818 86.5987 53.3449 86.6806 53.4307 86.7315C53.6397 86.8698 53.6093 87.2648 53.0938 87.2277C52.9364 87.2222 52.7823 87.1817 52.6426 87.109C52.5029 87.0363 52.3812 86.9333 52.2863 86.8075C52.1913 86.6816 52.1256 86.5362 52.094 86.3818C52.0623 86.2273 52.0654 86.0677 52.1031 85.9146C52.2547 85.0639 52.8579 84.1728 53.3667 84.1053C53.8755 84.0378 54.7382 84.2774 54.563 84.9492C54.563 84.9492 54.5798 85.3441 54.226 85.1821C53.8722 85.0201 53.8014 85.1281 53.7778 85.307C53.7668 85.3903 53.9934 85.4487 54.269 85.5198C54.5851 85.6013 54.9655 85.6994 55.1257 85.8707C55.4256 86.1914 55.0752 87.2817 54.5697 87.042C54.3515 86.9385 54.1138 86.7357 53.9004 86.5535C53.6193 86.3136 53.3801 86.1095 53.2825 86.215ZM64.9551 79.0892C64.9248 79.339 64.6889 79.4909 64.5575 79.4538C64.4227 79.4138 64.4987 79.1187 64.5889 78.7684C64.6588 78.4972 64.7371 78.1928 64.7327 77.9483C64.7226 77.3879 63.5904 77.5769 63.4388 77.9786C63.358 78.1927 63.4399 78.5718 63.5085 78.8893C63.5686 79.1676 63.6186 79.3986 63.5399 79.4301C63.3714 79.4977 63.2534 79.4909 63.2265 79.0926C63.1995 78.6943 62.8626 78.8833 62.8626 78.8833C62.1819 79.0318 62.3571 79.9095 62.6469 80.3348C62.9367 80.7601 64.0015 80.9019 64.8271 80.6555C64.9802 80.6202 65.1236 80.5512 65.2468 80.4534C65.37 80.3557 65.47 80.2317 65.5393 80.0904C65.6087 79.9492 65.6458 79.7942 65.6479 79.6368C65.65 79.4793 65.6171 79.3234 65.5516 79.1803C65.3494 78.6909 64.9855 78.8394 64.9551 79.0892ZM61.4843 65.5904C61.4112 65.5218 61.3149 65.4837 61.2147 65.4837C61.1146 65.4837 61.0182 65.5218 60.9452 65.5904C60.7565 65.7558 60.3858 65.6208 60.5644 65.1212C60.6122 64.9714 60.6928 64.8341 60.8001 64.7194C60.9075 64.6046 61.039 64.5152 61.1852 64.4577C61.3313 64.4002 61.4884 64.3759 61.6451 64.3868C61.8017 64.3976 61.954 64.4433 62.0908 64.5204C62.8692 64.8984 63.5634 65.7187 63.4893 66.2284C63.4151 66.7381 62.9535 67.5044 62.3537 67.1567C62.3091 67.1523 62.2668 67.135 62.232 67.1068C62.1971 67.0786 62.1713 67.0408 62.1577 66.998C62.1441 66.9553 62.1432 66.9095 62.1553 66.8663C62.1674 66.8231 62.1918 66.7844 62.2256 66.755C62.4784 66.4444 62.3907 66.36 62.2256 66.2892C62.1487 66.2561 62.0307 66.4593 61.8877 66.7055C61.724 66.9873 61.5276 67.3256 61.3226 67.4301C60.9384 67.6259 59.9747 66.998 60.3453 66.5761C60.5078 66.3911 60.772 66.2198 61.0064 66.0677C61.3067 65.8729 61.5581 65.7098 61.4843 65.5904ZM50.7568 67.1468C50.8567 67.1468 50.9526 67.1854 51.0247 67.2545C51.0988 67.38 50.8488 67.5409 50.5495 67.7335L50.5494 67.7335C50.3174 67.8828 50.0558 68.0511 49.8925 68.2368C49.5185 68.6621 50.4788 69.2866 50.8664 69.0908C51.0739 68.986 51.2708 68.6458 51.4343 68.3634C51.5761 68.1185 51.6928 67.917 51.7694 67.9499C51.9346 68.0208 52.0255 68.1052 51.7694 68.4157C51.5133 68.7263 51.8975 68.8174 51.8975 68.8174C52.4973 69.1685 52.9556 68.4022 53.0297 67.8925C53.1038 67.3828 52.4097 66.5592 51.6347 66.1845C51.4977 66.1067 51.3451 66.0606 51.188 66.0494C51.031 66.0383 50.8734 66.0623 50.7269 66.1199C50.5803 66.1775 50.4484 66.2671 50.3408 66.3822C50.2332 66.4973 50.1525 66.635 50.1048 66.7853C49.9296 67.2815 50.3003 67.4166 50.489 67.2545C50.5611 67.1854 50.657 67.1468 50.7568 67.1468ZM44.8717 63.0891C44.7808 63.1299 44.7091 63.2042 44.6714 63.2966C44.6338 63.389 44.6331 63.4924 44.6695 63.5853C44.747 63.825 44.4808 64.1153 44.0899 63.7608C43.9699 63.6592 43.8739 63.532 43.8091 63.3886C43.7442 63.2452 43.7121 63.0891 43.715 62.9317C43.7179 62.7742 43.7557 62.6194 43.8259 62.4785C43.896 62.3376 43.9965 62.214 44.1203 62.1169C44.7639 61.5431 45.8051 61.2156 46.2297 61.4789C46.6543 61.7422 47.2036 62.4612 46.6509 62.8865C46.6299 62.9266 46.5975 62.9596 46.5579 62.9813C46.5182 63.003 46.473 63.0124 46.428 63.0085C46.383 63.0045 46.3401 62.9873 46.3048 62.959C46.2696 62.9307 46.2434 62.8926 46.2297 62.8494C46.041 62.5119 45.9298 62.5456 45.8018 62.6671C45.7424 62.7235 45.8832 62.9093 46.0545 63.1353C46.2525 63.3965 46.4913 63.7115 46.5094 63.9431C46.5431 64.3752 45.5962 65.0199 45.3468 64.517C45.2374 64.2962 45.1806 63.9865 45.1301 63.7117C45.0656 63.3604 45.0117 63.0664 44.8717 63.0891ZM33.75 71.8316C33.6677 71.7756 33.6103 71.6897 33.5899 71.5921C33.5956 71.4498 33.9025 71.4568 34.2642 71.4651C34.546 71.4715 34.8611 71.4787 35.0928 71.4166C35.6218 71.2748 35.1837 70.2149 34.7558 70.1609C34.5265 70.132 34.1716 70.3006 33.8769 70.4407C33.6215 70.562 33.4113 70.6619 33.3675 70.593C33.2731 70.4444 33.2462 70.3229 33.6303 70.2115C33.6751 70.2066 33.7175 70.1887 33.7521 70.1598C33.7867 70.131 33.8121 70.0925 33.8251 70.0493C33.838 70.0061 33.8379 69.96 33.8249 69.9168C33.8118 69.8736 33.7863 69.8352 33.7516 69.8065C33.4517 69.1786 32.6396 69.5533 32.2925 69.9314C31.9455 70.3094 32.0533 71.3828 32.4846 72.1288C32.554 72.2702 32.654 72.3943 32.7773 72.4922C32.9007 72.59 33.0442 72.659 33.1975 72.6943C33.3508 72.7295 33.5101 72.7301 33.6636 72.6959C33.8172 72.6617 33.9612 72.5937 34.0852 72.4967C34.5132 72.1862 34.2807 71.8655 34.0313 71.8925C33.9332 71.9095 33.8324 71.8877 33.75 71.8316ZM34.6076 79.0116C34.5524 79.0943 34.5304 79.1948 34.546 79.2931C34.5617 79.3913 34.6137 79.48 34.6918 79.5415C34.8839 79.7069 34.8098 80.0917 34.2908 79.9938C34.1354 79.9701 33.9871 79.912 33.8569 79.8237C33.7267 79.7354 33.6177 79.6191 33.538 79.4833C33.4583 79.3475 33.4098 79.1956 33.396 79.0387C33.3823 78.8818 33.4036 78.7237 33.4585 78.5761C33.7112 77.7491 34.4121 76.9356 34.9277 76.9288C35.4433 76.9221 36.2756 77.2664 36.0161 77.9077C36.0161 77.9077 35.9892 78.2993 35.6421 78.0968C35.295 77.8942 35.2276 77.9921 35.1804 78.1677C35.1584 78.2497 35.3777 78.3347 35.6437 78.4377C35.947 78.5553 36.311 78.6963 36.4474 78.8833C36.7035 79.2343 36.2318 80.2808 35.7735 79.9803C35.5802 79.8536 35.3767 79.6326 35.1915 79.4315C34.9378 79.1559 34.7186 78.9179 34.6076 79.0116Z"
        fill="#E07153"/>
</svg>
