<svg width="32" height="25" viewBox="0 0 32 25" fill="none" xmlns="http://www.w3.org/2000/svg">
<path fill-rule="evenodd" clip-rule="evenodd" d="M0.240781 8.98848C0.240781 9.49285 1.02434 10.3665 1.47466 10.3395L7.96828 9.93415C6.81546 8.71828 6.21207 5.07967 6.21207 3.35043L0.36683 6.81792C-0.3717 7.25023 0.231774 8.05181 0.240781 8.98848Z" fill="#E07153"/>
<path fill-rule="evenodd" clip-rule="evenodd" d="M13.2103 0.0180168C9.40954 0.504366 8.2477 1.81931 7.30203 2.89108C7.11234 5.24924 7.60309 7.61231 8.71605 9.69995L9.94993 9.55587L9.78782 5.05262C9.36451 2.21559 12.1295 0.342245 13.2103 0V0.0180168Z" fill="#E07153"/>
<path fill-rule="evenodd" clip-rule="evenodd" d="M21.2977 3.70163C22.5496 4.75539 23.5583 5.98027 24.8102 7.04303C21.6219 8.89836 20.8384 8.9524 19.0731 12.9242L17.6681 11.8795C17.6681 7.8446 17.3979 5.57497 21.2707 3.77368L21.2977 3.70163Z" fill="#E07153"/>
<path fill-rule="evenodd" clip-rule="evenodd" d="M25.576 7.80859C26.5306 8.44935 27.3432 9.2798 27.963 10.2482C28.5828 11.2167 28.9966 12.3023 29.1785 13.4376C27.044 14.3383 23.7746 17.4365 22.7839 16.1396L19.8298 13.987C21.6311 9.62788 24.0178 8.89835 25.5939 7.84459L25.576 7.80859Z" fill="#E07153"/>
<path fill-rule="evenodd" clip-rule="evenodd" d="M22.3877 3.41347L25.7831 6.52969L29.6919 5.53899C29.1065 4.89053 28.1879 2.68394 22.3877 3.41347Z" fill="#E07153"/>
<path fill-rule="evenodd" clip-rule="evenodd" d="M30.4483 6.3856L26.7737 7.28625C28.4524 8.68885 29.5634 10.6545 29.899 12.8162C32.6009 11.9156 32.6009 8.86238 30.4483 6.3856Z" fill="#E07153"/>
<path fill-rule="evenodd" clip-rule="evenodd" d="M16.3713 0.0810624H16.9117C20.6854 -0.0270151 23.0361 0.837606 24.252 2.43175C23.524 2.36404 22.7914 2.36404 22.0634 2.43175C20.6415 2.60307 19.3313 3.28811 18.3792 4.35798C17.4271 5.42784 16.8988 6.80876 16.8937 8.24091V20.7419C16.8811 21.0793 16.9458 21.415 17.0828 21.7236L23.6665 22.8944C23.8535 22.9303 24.0435 22.9484 24.2339 22.9485C25.6211 22.9312 26.9573 22.4233 28.0058 21.515C29.0542 20.6066 29.7473 19.3564 29.9621 17.9859C29.9815 17.7672 29.9815 17.5472 29.9621 17.3284V14.7256C29.9711 14.5546 29.9711 14.3832 29.9621 14.2122L31.232 13.3116C31.3328 13.7822 31.3841 14.2622 31.3851 14.7436V17.2834C31.3835 17.585 31.3594 17.886 31.3131 18.184C31.1232 19.9282 30.2916 21.5394 28.9799 22.7045C27.6683 23.8697 25.9703 24.5056 24.216 24.4886C23.9533 24.4853 23.6913 24.4612 23.4324 24.4165L10.0218 22.0208C8.59648 21.7299 7.33289 20.9132 6.48224 19.7332C5.54635 18.5092 5.03422 17.0138 5.02319 15.4731V11.186L6.41017 11.114V15.4821C6.41982 16.6668 6.81856 17.8155 7.54499 18.7515C8.18653 19.6709 9.15151 20.3142 10.2469 20.5528L11.8771 20.841C11.1349 19.8309 10.737 18.6089 10.7423 17.3554V4.79145C10.7423 1.81932 13.7234 0.0810624 16.3623 0.0810624H16.3713Z" fill="#1B1B1B"/>
</svg>
