<svg width="22" height="22" viewBox="0 0 22 22" fill="none" xmlns="http://www.w3.org/2000/svg">
<path fill-rule="evenodd" clip-rule="evenodd" d="M19.2279 0.449455C19.0327 0.938787 18.5863 1.78395 18.2908 2.22328C17.6592 3.16265 17.1853 3.65494 15.5116 5.11055C13.7941 6.60425 13.2838 7.17023 12.7889 8.13005C12.2174 9.23849 12.0233 10.1696 11.9845 11.9885C11.9669 12.817 11.9729 12.9813 12.0184 12.9157C12.0487 12.8719 12.2258 12.602 12.4119 12.3159C13.1268 11.2165 13.7669 10.4982 15.1034 9.29568C16.4617 8.07358 16.9927 7.49346 17.6081 6.55978C18.0801 5.84376 18.9231 4.25982 19.1428 3.67662C19.2105 3.49671 19.2969 3.41955 19.4305 3.41955C19.7928 3.41955 19.7977 3.98335 19.4462 5.1962C19.1333 6.27585 18.7008 7.22191 18.1319 8.07118C17.6915 8.72872 17.3521 9.13562 16.4786 10.0534C15.347 11.2423 15.0259 11.6046 14.5923 12.1813C14.0555 12.8954 13.5588 13.6763 13.6092 13.7266C13.6182 13.7355 13.6921 13.7249 13.7735 13.703C13.8549 13.681 14.434 13.5664 15.0604 13.4483C16.7716 13.1255 17.4353 12.9292 18.2996 12.4905C19.7204 11.7691 20.7183 10.5209 21.3116 8.72293C21.8679 7.0372 21.9495 5.39534 21.5534 3.86017C21.2274 2.59688 20.5008 1.34521 19.5611 0.428033L19.3274 0.200012L19.2279 0.449455ZM10.2472 1.94808C8.36691 2.12786 6.67052 2.80198 5.2621 3.92902C5.08483 4.07088 4.93979 4.19958 4.93979 4.21501C4.93979 4.23047 5.09463 4.28767 5.28389 4.34213C5.47315 4.39663 5.80191 4.51612 6.01446 4.60772L6.40094 4.77426L6.74474 4.55117C8.71677 3.27152 11.1759 2.95147 13.4058 3.68425C13.8837 3.84127 14.7191 4.2378 15.1392 4.50695L15.4543 4.70888L15.9524 4.26775C16.2264 4.02508 16.452 3.80781 16.4538 3.78489C16.4599 3.70657 15.5986 3.16274 14.9959 2.86432C14.0192 2.38077 12.9517 2.07615 11.8435 1.96471C11.4307 1.92323 10.598 1.91454 10.2472 1.94808ZM19.0912 4.60622C18.7431 5.3285 18.2847 6.14821 17.9097 6.71861C17.2772 7.68082 16.758 8.26291 15.6196 9.28626C13.9874 10.7535 13.2275 11.6145 12.4905 12.8315C11.8403 13.905 11.2872 15.3061 10.9544 16.7229C10.9378 16.7936 10.9175 16.8321 10.9093 16.8086C10.9011 16.785 10.8068 16.4623 10.6998 16.0915C10.0714 13.9144 8.96448 11.7136 7.54807 9.82486C6.92901 8.99937 5.97218 7.9264 5.44393 7.46535L5.15467 7.21282L5.31892 7.41586C7.04182 9.54547 8.57792 12.4612 9.44665 15.2508C10.0583 17.215 10.4621 19.6841 10.4621 21.4607V21.8H10.971H11.48L11.5091 20.9625C11.6511 16.8721 12.6375 13.9419 14.7067 11.4632C14.8844 11.2504 15.4432 10.6526 15.9487 10.1348C16.4541 9.61685 16.9943 9.03639 17.1491 8.84487C17.9942 7.79915 18.6989 6.48446 19.0703 5.26042C19.225 4.75087 19.3645 4.18921 19.3485 4.14114C19.341 4.11878 19.2252 4.32807 19.0912 4.60622ZM2.14642 4.39187C1.46789 4.45245 0.175465 4.68772 0.200304 4.74616C0.207051 4.76201 0.369024 4.91179 0.560219 5.07902C1.3036 5.7291 1.85918 6.48849 2.14423 7.2441C2.29894 7.65404 2.40066 8.07426 2.57725 9.03223C2.7987 10.2335 2.97902 10.7325 3.42484 11.3776C4.08425 12.3317 5.24294 13.0055 6.80374 13.3423C7.26731 13.4424 8.43159 13.5987 8.46502 13.5654C8.48999 13.5405 7.92504 12.2783 7.60578 11.6458C6.88771 10.223 5.96586 8.7758 5.07078 7.66599C4.71005 7.21873 4.66204 7.05738 4.84048 6.89166C4.97297 6.76856 5.13296 6.78292 5.35235 6.93763C5.68841 7.17456 6.77396 8.30669 7.3402 9.01081C7.93703 9.75292 8.82498 11.0506 9.23702 11.7827C9.44893 12.1594 9.50222 12.2276 9.53785 12.168C9.56363 12.1249 9.58069 11.6895 9.58018 11.0888C9.57915 9.95674 9.52788 9.61338 9.23427 8.77246C8.6909 7.21608 7.44892 5.69556 6.21047 5.07045C5.55661 4.74041 4.65925 4.49264 3.80714 4.40691C3.39029 4.36496 2.53474 4.35721 2.14642 4.39187ZM2.06683 9.10837C1.91303 9.83519 1.88896 10.0974 1.89098 11.0245C1.89326 12.0658 1.95888 12.5663 2.20968 13.4558C3.08684 16.567 5.56662 18.9815 8.7166 19.7914C9.10101 19.8902 10.0006 20.046 10.0284 20.0186C10.0496 19.9976 9.90962 18.7812 9.87589 18.6936C9.86282 18.6596 9.78147 18.6197 9.69509 18.6048C9.60876 18.59 9.34966 18.5313 9.11932 18.4744C6.1057 17.7304 3.85141 15.2903 3.34714 12.2266C3.27726 11.8022 3.25556 11.7447 3.04434 11.4246C2.67029 10.8578 2.40311 10.0902 2.25214 9.14881C2.22275 8.96552 2.1848 8.807 2.16778 8.7965C2.15076 8.78604 2.10534 8.92636 2.06683 9.10837ZM19.7446 11.9123C19.4864 12.1498 18.6235 12.7597 18.5458 12.7597C18.5271 12.7597 18.4684 12.9179 18.4152 13.1113C18.2942 13.5514 18.1263 13.9747 17.8706 14.4841C16.8247 16.5678 14.8508 18.0726 12.5365 18.5506C12.2819 18.6032 12.0615 18.6637 12.0469 18.6851C12.0321 18.7066 11.9974 18.9679 11.9697 19.2659C11.9419 19.5639 11.911 19.8609 11.9008 19.9259C11.8797 20.0604 11.8603 20.0603 12.6108 19.931C16.0306 19.342 18.9148 16.6796 19.7834 13.31C19.9278 12.7499 20.0578 11.9692 20.0377 11.7831L20.024 11.6554L19.7446 11.9123Z" fill="#00C070"/>
</svg>
